<?xml version="1.0"?>
<svg xmlns="http://www.w3.org/2000/svg" xmlns:xlink="http://www.w3.org/1999/xlink" xmlns:svgjs="http://svgjs.com/svgjs" version="1.1" width="512" height="512" x="0" y="0" viewBox="0 0 490 490" style="enable-background:new 0 0 512 512" xml:space="preserve" class=""><g transform="matrix(1,0,0,1,5.684341886080802e-14,0)"><g xmlns="http://www.w3.org/2000/svg"><path d="m490 245c0 21.45-2.76 42.26-7.94 62.09-15.06 57.66-50.6 107.05-98.39 139.91-39.43 27.13-87.19 43-138.67 43s-99.24-15.87-138.67-43c-47.8-32.87-83.35-82.27-98.4-139.94-5.18-19.82-7.93-40.62-7.93-62.06s2.75-42.24 7.93-62.06c6.57-25.16 17.03-48.75 30.72-70.07 43.56-67.89 119.7-112.87 206.35-112.87s162.79 44.98 206.35 112.87c13.68 21.31 24.15 44.89 30.71 70.04 5.18 19.83 7.94 40.64 7.94 62.09z" fill="#5735df" data-original="#d54980" style="" class=""/><g><path d="m482.06 112.87v194.22c-15.06 57.66-50.6 107.05-98.39 139.91h-277.34c-47.8-32.87-83.35-82.27-98.4-139.94v-194.19z" fill="#f1f1f1" data-original="#f1f1f1" style="" class=""/><path d="m482.064 139.024h-474.135v-48.004c0-10.496 8.509-19.004 19.004-19.004h436.127c10.496 0 19.004 8.509 19.004 19.004z" fill="#d3d2d2" data-original="#d3d2d2" style="" class=""/><path d="m7.929 138.024h474.135v12.488h-474.135z" fill="#e4e4e4" data-original="#e4e4e4" style="" class=""/><g><circle cx="36.762" cy="105.52" fill="#5735df" r="19.674" data-original="#d54980" style="" class=""/><circle cx="91.195" cy="105.52" fill="#7ab6da" r="19.674" data-original="#f6e06e" style="" class=""/><circle cx="145.627" cy="105.52" fill="#e9edec" r="19.674" data-original="#74baa7" style="" class=""/></g><path d="m224.082 189.01v200.99h-168.64c-13.42-18.23-24.36-38.39-32.35-59.99v-141z" fill="#ffffff" data-original="#ffffff" style="" class=""/><g fill="#444562"><path d="m251.076 189.01h205.49v20.999h-205.49z" fill="#444562" data-original="#444562" style="" class=""/><path d="m251.076 234.008h205.49v20.999h-205.49z" fill="#444562" data-original="#444562" style="" class=""/><path d="m251.076 279.006h205.49v20.999h-205.49z" fill="#444562" data-original="#444562" style="" class=""/><path d="m251.076 324.004h205.49v20.999h-205.49z" fill="#444562" data-original="#444562" style="" class=""/><path d="m251.076 369.001h130.93v20.999h-130.93z" fill="#444562" data-original="#444562" style="" class=""/></g><g><path d="m184.2 267.152v68.294c0 18.209-27.141 32.97-60.613 32.97-13.852 0-26.62-2.534-36.823-6.782-14.464-6.029-23.79-15.515-23.79-26.187v-72.533l23.79.829z" fill="#939796" data-original="#593375" style="" class=""/><path d="m184.2 267.149v68.3c0 6.065-3.012 11.75-8.275 16.632-5.172 4.808-12.52 8.837-21.308 11.684-9.077 2.954-19.694 4.65-31.03 4.65-7.1 0-13.918-.662-20.248-1.887v-102.21l51.279 1.796 21.308.745z" fill="#b6bdbc" data-original="#704f85" style="" class=""/><path d="m224.079 272.194v9.72c.02 2.862-1.436 5.734-4.357 7.278l-85.848 45.327c-3.214 1.7-6.75 2.55-10.287 2.55s-7.073-.85-10.287-2.55l-85.848-45.327c-2.921-1.543-4.376-4.415-4.357-7.278v-9.72h9.163l81.042-42.787c3.214-1.7 6.75-2.55 10.287-2.55s7.073.85 10.287 2.55l81.042 42.787z" fill="#939796" data-original="#593375" style="" class=""/><path d="m169.266 266.626v90.489c-4.201 2.618-9.144 4.865-14.653 6.653v-97.649z" fill="#939796" data-original="#8d71b3" style="" class=""/><path d="m224.08 272.194v9.721c.021 2.859-1.436 5.734-4.356 7.277l-41.511 21.916-6.563 3.466-37.778 19.943c-3.212 1.702-6.748 2.551-10.283 2.551v-110.212c3.536 0 7.072.849 10.283 2.551l81.044 42.786h9.164z" fill="#939796" data-original="#8d71b3" style="" class=""/><path d="m219.724 264.964-85.847-45.324c-6.438-3.399-14.14-3.399-20.579 0l-85.847 45.324c-5.812 3.068-5.812 11.392 0 14.46l85.847 45.324c6.438 3.399 14.14 3.399 20.579 0l85.847-45.324c5.811-3.068 5.811-11.392 0-14.46z" fill="#b6bdbc" data-original="#704f85" style="" class=""/><path d="m178.213 298.298v12.81l-6.563 3.466v-14.336l-48.061-26.412-4.455-2.449c-1.587-.874-2.166-2.867-1.292-4.455.87-1.587 2.867-2.17 4.455-1.296l1.292.71 52.926 29.086c1.046.575 1.698 1.678 1.698 2.876z" fill="#b6bdbc" data-original="#704f85" style="" class=""/><ellipse cx="123.587" cy="272.194" fill="#939796" rx="10.746" ry="6.838" data-original="#8d71b3" style="" class=""/><path d="m177.804 344.464c-1.812 0-3.281-1.469-3.281-3.281v-37.253l-52.516-28.86c-1.588-.873-2.168-2.868-1.295-4.456s2.868-2.168 4.456-1.295l54.217 29.795c1.049.577 1.701 1.679 1.701 2.876v39.194c0 1.811-1.469 3.28-3.282 3.28z" fill="#7ab6da" data-original="#f6e06e" style="" class=""/><path d="m190.201 371.856c0-6.848-5.551-23.722-12.399-23.722s-12.399 16.875-12.399 23.722c0 6.848 5.551 1.076 12.399 1.076s12.399 5.772 12.399-1.076z" fill="#7ab6da" data-original="#f6e06e" style="" class=""/><path d="m173.702 371.856c0 .665.016 1.214.049 1.657-4.857 1.272-8.347 3.774-8.347-1.657 0-6.846 5.554-23.721 12.4-23.721-2.265 0-4.102 16.875-4.102 23.721z" fill="#5735df" data-original="#dcbe34" style="" class=""/><circle cx="177.804" cy="341.183" fill="#ffffff" r="9.004" data-original="#ffffff" style="" class=""/><path d="m181.085 349.567c-1.017.402-2.125.619-3.281.619-4.976 0-9.004-4.032-9.004-9.004 0-4.971 4.028-9.004 9.004-9.004 1.157 0 2.264.217 3.281.619-3.351 1.309-5.722 4.569-5.722 8.384 0 3.817 2.371 7.078 5.722 8.386z" fill="#f1f1f1" data-original="#f1f1f1" style="" class=""/></g></g></g></g></svg>
